<svg xmlns="http://www.w3.org/2000/svg" viewBox="0 0 436.1 270.8"><defs><style>      .cls-1 {        fill: #e7eadf;      }    </style></defs><g><g id="Capa_1"><g id="Capa_1-2" data-name="Capa_1"><g id="change1_1"><path class="cls-1" d="M423.5,268.4c2.1,2.3,4.6,1.2,6-.9.1-.2.2-.4.3-.6.3-1.1.7-2.1,1.4-3,.7-.8,1.7-1.6,2.6-2.1.2,0,.5-.4.7-.6,1.3-1.3,2-4.3-.7-5.8,0,0-1.3-.6-3.4-.4-2,.2-3.2-.1-4.4-.6-.7-.3-3.6-1.2-5.4,1.1-1.9,2.3-.5,4.9,0,5.5.9,1.2,1.4,2.2,1.7,4.2.3,2,1.2,3.2,1.2,3.2"></path><path class="cls-1" d="M411.6,258.8c-2.3-1.4-3.3-4-2.3-5.7s3.8-2,6.2-.5c2.3,1.4,3.3,4,2.3,5.8-1.1,1.7-3.8,2-6.2.5"></path><path class="cls-1" d="M416.2,267.1c-2.1-.8-3.3-2.7-2.8-4.3.6-1.6,2.8-2.2,4.9-1.4,2.1.8,3.3,2.7,2.8,4.3-.6,1.6-2.8,2.2-4.9,1.4"></path><path class="cls-1" d="M430.9,248.7c-1.2-1.9-3.4-2.7-4.8-1.8s-1.6,3.2-.3,5.1c1.2,1.9,3.4,2.7,4.8,1.8s1.6-3.2.3-5.1"></path><path class="cls-1" d="M421.6,246.3c-1.9-1.9-4.7-2.3-6.1-.9-1.4,1.4-1.1,4.2.9,6.1,1.9,1.9,4.7,2.4,6.1.9s1.1-4.2-.9-6.1"></path><path class="cls-1" d="M382.3,266.2c2,2.4,4.5,1.5,6.1-.4.1-.2.2-.4.3-.5.4-1.1.9-2.1,1.6-2.9s1.8-1.4,2.8-1.9h0c.2,0,.6-.4.7-.5,1.3-1.2,2.3-4.1-.3-5.9,0,0-1.3-.7-3.3-.7s-3.2-.3-4.3-.9c-.7-.3-3.6-1.5-5.5.7-2.1,2.1-.8,4.8-.4,5.5.9,1.2,1.2,2.3,1.4,4.3.1,2,1,3.2,1,3.2"></path><path class="cls-1" d="M371.1,255.8c-2.2-1.6-3-4.2-1.8-5.9s4-1.7,6.2-.1c2.2,1.6,3,4.3,1.8,5.9-1.2,1.7-4,1.7-6.2.1"></path><path class="cls-1" d="M375.1,264.4c-2-.9-3.1-2.9-2.4-4.4s2.9-2,5-1.1c2,.9,3.1,2.9,2.4,4.4s-2.9,2-5,1.1"></path><path class="cls-1" d="M391.1,247c-1.1-2-3.2-2.9-4.6-2.1-1.5.8-1.8,3.1-.7,5,1.1,2,3.2,2.9,4.6,2.1,1.5-.8,1.8-3.1.7-5"></path><path class="cls-1" d="M382,244c-1.8-2.1-4.5-2.7-6-1.3-1.5,1.3-1.4,4.1.4,6.2,1.8,2.1,4.5,2.7,6,1.3s1.4-4.1-.4-6.2"></path><path class="cls-1" d="M382.5,223.9c.9,3,3.6,3.1,5.8,1.9.2,0,.3-.2.5-.4h0c.8-.9,1.6-1.6,2.6-2.1,1-.4,2.2-.7,3.3-.7h0c.2,0,.7-.2.9-.2,1.7-.6,3.7-3,1.9-5.6,0,0-.9-1.2-2.8-1.9s-2.8-1.5-3.7-2.5c-.5-.6-2.7-2.7-5.4-1.4-2.7,1.2-2.6,4.2-2.4,5,.3,1.5.3,2.6-.3,4.5-.6,1.9-.3,3.4-.3,3.4"></path><path class="cls-1" d="M376.1,210.1c-1.5-2.3-1.2-5.1.5-6.2,1.7-1.1,4.3,0,5.8,2.2,1.5,2.3,1.2,5.1-.5,6.2-1.7,1.1-4.3,0-5.8-2.2"></path><path class="cls-1" d="M376.5,219.5c-1.6-1.6-1.8-3.9-.6-5,1.2-1.2,3.5-.8,5,.8,1.6,1.6,1.8,3.9.6,5-1.2,1.2-3.5.8-5-.8"></path><path class="cls-1" d="M397.8,209.4c-.3-2.2-1.8-3.9-3.5-3.7s-2.8,2.2-2.5,4.4,1.9,3.9,3.5,3.7c1.7-.2,2.8-2.2,2.5-4.4"></path><path class="cls-1" d="M390.5,203.2c-.9-2.6-3.2-4.2-5.1-3.5-1.9.6-2.8,3.3-1.9,5.9.9,2.6,3.2,4.1,5.1,3.5,1.9-.7,2.8-3.3,1.9-5.9"></path><path class="cls-1" d="M346,217c1.2,2.9,3.9,2.8,5.9,1.3.2-.1.3-.3.4-.4.7-.9,1.4-1.7,2.4-2.3.9-.5,2.1-.9,3.2-1h0c.2,0,.7-.2.8-.3,1.6-.8,3.4-3.3,1.4-5.7,0,0-1-1.1-3-1.6-2-.6-2.9-1.2-3.9-2.1-.6-.5-3-2.4-5.5-.9-2.6,1.5-2.2,4.4-1.9,5.2.5,1.4.5,2.5,0,4.5s0,3.4,0,3.4"></path><path class="cls-1" d="M338.3,203.8c-1.7-2.2-1.7-4.9,0-6.2,1.6-1.2,4.3-.5,5.9,1.7,1.7,2.2,1.7,4.9,0,6.2-1.6,1.2-4.3.5-5.9-1.7"></path><path class="cls-1" d="M339.6,213.2c-1.7-1.5-2.2-3.7-1.1-5s3.4-1.1,5.1.4,2.2,3.7,1.1,5-3.4,1.1-5.1-.4"></path><path class="cls-1" d="M359.9,201.1c-.5-2.2-2.2-3.7-3.8-3.3-1.6.4-2.6,2.4-2.1,4.6s2.2,3.7,3.8,3.3c1.6-.4,2.6-2.4,2.1-4.6"></path><path class="cls-1" d="M352,195.6c-1.1-2.5-3.5-3.8-5.4-3s-2.5,3.5-1.4,6,3.5,3.9,5.4,3c1.9-.8,2.5-3.5,1.4-6"></path><path class="cls-1" d="M356.2,178.6c2.1,2.3,4.6,1.2,6-.9.1-.2.2-.4.3-.6h0c.3-1.1.7-2.1,1.4-3,.7-.8,1.7-1.6,2.6-2.1.2,0,.5-.4.7-.6,1.3-1.3,2-4.3-.7-5.9,0,0-1.3-.6-3.4-.4-2,.2-3.2-.1-4.4-.6-.7-.3-3.6-1.2-5.4,1.1-1.9,2.3-.5,4.9,0,5.5.9,1.2,1.4,2.2,1.7,4.2.3,2,1.2,3.2,1.2,3.2"></path><path class="cls-1" d="M344.3,169c-2.3-1.4-3.3-4-2.3-5.7,1.1-1.7,3.8-2,6.2-.5,2.3,1.4,3.3,4,2.3,5.7-1.1,1.7-3.8,2-6.1.5"></path><path class="cls-1" d="M348.9,177.3c-2.1-.8-3.3-2.7-2.8-4.3.6-1.6,2.8-2.2,4.9-1.4s3.3,2.7,2.8,4.2c-.6,1.6-2.8,2.2-4.9,1.4"></path><path class="cls-1" d="M363.6,158.8c-1.2-1.9-3.4-2.7-4.8-1.7-1.4.9-1.5,3.2-.3,5.1,1.2,1.9,3.4,2.7,4.8,1.7,1.4-.9,1.5-3.2.3-5.1"></path><path class="cls-1" d="M354.3,156.5c-1.9-1.9-4.7-2.3-6.1-.9-1.4,1.4-1.1,4.2.9,6.1,1.9,1.9,4.7,2.3,6.1.9,1.4-1.5,1.1-4.2-.9-6.1"></path><path class="cls-1" d="M316.6,188.3c2.5,1.8,4.8.2,5.7-2.1,0-.2.1-.4.1-.6,0-1.2.3-2.2.8-3.3.5-.9,1.3-1.9,2.1-2.6q.5-.5,0,0c.2-.1.4-.5.5-.7,1-1.5,1.1-4.6-1.9-5.6,0,0-1.4-.3-3.4.3-1.9.6-3.1.5-4.4.3-.8-.1-3.8-.5-5.1,2.2-1.4,2.6.5,4.9,1.2,5.4,1.2,1,1.8,1.8,2.5,3.8.7,1.9,1.8,2.9,1.8,2.9"></path><path class="cls-1" d="M302.9,181.4c-2.6-.9-4.1-3.2-3.4-5.2.7-1.9,3.3-2.7,5.9-1.8s4.1,3.2,3.4,5.2c-.7,1.9-3.3,2.7-5.9,1.8"></path><path class="cls-1" d="M309.1,188.6c-2.2-.3-3.8-1.9-3.6-3.6.3-1.6,2.3-2.7,4.5-2.4s3.8,2,3.6,3.6c-.2,1.7-2.3,2.7-4.5,2.4"></path><path class="cls-1" d="M319.7,167.5c-1.6-1.6-3.8-1.9-5-.7s-.9,3.4.7,5,3.8,1.9,5,.7.9-3.4-.7-5"></path><path class="cls-1" d="M310.1,167.1c-2.3-1.5-5-1.3-6.2.4-1.1,1.7-.2,4.3,2.1,5.8,2.3,1.5,5,1.3,6.2-.4,1.1-1.7.2-4.3-2.1-5.8"></path><path class="cls-1" d="M274.7,172.8c3.1.6,4.5-1.7,4.4-4.2,0-.2,0-.4-.1-.6h0c-.4-1.1-.7-2.1-.6-3.3,0-1.1.5-2.2.9-3.2h0c0-.2.2-.7.2-.9.3-1.8-.9-4.6-4-4.3,0,0-1.5.2-3,1.6-1.5,1.3-2.6,1.7-3.9,2.1-.8.2-3.7,1.1-3.8,4.1-.2,3,2.4,4.2,3.2,4.5,1.4.4,2.4,1,3.8,2.4,1.4,1.5,2.8,1.9,2.8,1.9"></path><path class="cls-1" d="M259.4,171.9c-2.7.2-5-1.3-5.2-3.4s2-3.8,4.7-4c2.7-.2,5,1.3,5.2,3.4.1,2-2,3.8-4.7,4"></path><path class="cls-1" d="M267.9,176c-2.2.6-4.3-.2-4.7-1.9s1-3.4,3.1-4,4.3.2,4.7,1.9c.4,1.6-1,3.4-3.1,4"></path><path class="cls-1" d="M269.2,152.5c-2.1-.8-4.3-.2-4.9,1.3-.6,1.6.6,3.5,2.7,4.3s4.3.2,4.9-1.3c.6-1.6-.6-3.5-2.7-4.3"></path><path class="cls-1" d="M260.2,156c-2.7-.5-5.2.8-5.5,2.8s1.6,4,4.3,4.5c2.7.4,5.2-.8,5.5-2.8s-1.6-4-4.3-4.5"></path><path class="cls-1" d="M214.6,173.2c3.1.6,4.5-1.7,4.4-4.2,0-.2,0-.4-.1-.6-.4-1.1-.7-2.1-.6-3.3,0-1.1.5-2.2.9-3.2,0-.2.2-.7.2-.9.3-1.8-.9-4.6-4-4.3,0,0-1.4.2-3,1.6-1.5,1.3-2.7,1.7-3.9,2.1-.8.2-3.7,1.1-3.8,4.1-.2,2.9,2.5,4.2,3.2,4.4,1.5.4,2.4,1,3.8,2.5,1.4,1.5,2.8,1.9,2.8,1.9"></path><path class="cls-1" d="M199.3,172.3c-2.7.2-5-1.3-5.2-3.4s2-3.8,4.7-4,5,1.3,5.2,3.4c.1,2-2,3.8-4.7,4"></path><path class="cls-1" d="M207.9,176.4c-2.2.6-4.3-.2-4.7-1.9-.4-1.6,1-3.4,3.1-4s4.3.2,4.7,1.9c.4,1.6-1,3.4-3.1,4"></path><path class="cls-1" d="M209.1,152.9c-2.1-.8-4.3-.2-4.9,1.3-.6,1.6.6,3.5,2.7,4.3,2.1.8,4.3.2,4.9-1.3.6-1.6-.6-3.5-2.7-4.3"></path><path class="cls-1" d="M200.2,156.4c-2.7-.5-5.2.8-5.5,2.8s1.6,4,4.3,4.5c2.7.4,5.2-.8,5.5-2.8s-1.6-4-4.3-4.5"></path><path class="cls-1" d="M189.3,143.6c2.9,1.2,4.7-.8,5.1-3.3v-.6c-.2-1.2-.2-2.2,0-3.3.3-1,.9-2.1,1.5-3,.1-.2.3-.6.4-.8.6-1.7,0-4.7-3.1-5,0,0-1.5,0-3.2,1-1.8,1-2.9,1.2-4.2,1.3-.8,0-3.8.4-4.5,3.3-.8,2.9,1.6,4.6,2.3,5,1.4.7,2.2,1.4,3.3,3.1,1.1,1.7,2.4,2.4,2.4,2.4"></path><path class="cls-1" d="M174.5,139.8c-2.7-.3-4.7-2.2-4.5-4.3.3-2,2.7-3.4,5.4-3.1,2.7.3,4.7,2.2,4.5,4.3-.3,2-2.7,3.4-5.4,3.1"></path><path class="cls-1" d="M182.1,145.4c-2.2.2-4.2-1-4.3-2.7s1.6-3.2,3.8-3.3c2.2-.2,4.2,1,4.3,2.7s-1.6,3.2-3.8,3.3"></path><path class="cls-1" d="M187.8,122.6c-1.9-1.2-4.2-1-5.1.4-.9,1.4,0,3.5,1.8,4.7,1.9,1.2,4.2,1,5.1-.4.9-1.4,0-3.5-1.8-4.7"></path><path class="cls-1" d="M178.3,124.3c-2.6-.9-5.2-.2-5.9,1.7-.7,1.9.8,4.2,3.3,5.2,2.6,1,5.2.2,5.9-1.7.7-1.9-.8-4.2-3.3-5.2"></path><path class="cls-1" d="M147.7,156.2c2.5,1.8,4.8.2,5.7-2.1,0-.2.1-.4.1-.6,0-1.2.3-2.2.8-3.2.5-.9,1.3-1.9,2.1-2.6.2-.2.4-.5.5-.7,1-1.5,1.1-4.6-1.9-5.6,0,0-1.4-.3-3.4.2-1.9.6-3.1.5-4.4.3-.8-.1-3.8-.5-5.1,2.2-1.4,2.6.5,4.9,1.2,5.4,1.2,1,1.8,1.8,2.5,3.8.7,1.9,1.8,2.9,1.8,2.9"></path><path class="cls-1" d="M134.1,149.2c-2.6-.9-4.1-3.2-3.4-5.2.7-1.9,3.3-2.7,5.9-1.8,2.6.9,4.1,3.2,3.4,5.2-.7,1.9-3.3,2.7-5.9,1.8"></path><path class="cls-1" d="M140.3,156.4c-2.2-.3-3.8-1.9-3.6-3.6.2-1.7,2.2-2.7,4.5-2.4,2.2.3,3.8,1.9,3.6,3.6-.3,1.7-2.3,2.7-4.5,2.4"></path><path class="cls-1" d="M150.9,135.3c-1.6-1.6-3.8-1.9-5-.7s-.9,3.4.7,5c1.6,1.6,3.8,1.9,5,.7s.9-3.4-.7-5"></path><path class="cls-1" d="M141.3,134.9c-2.3-1.5-5-1.3-6.2.4-1.1,1.7-.2,4.3,2.1,5.8s5,1.3,6.2-.4c1.1-1.7.2-4.3-2.1-5.8"></path><path class="cls-1" d="M138.3,123.1c2.5,1.8,4.8.3,5.7-2.1,0-.2.1-.4.1-.6h0c0-1.2.3-2.2.8-3.3.5-.9,1.3-1.9,2.1-2.6h0c.2,0,.4-.6.5-.7,1-1.5,1.1-4.6-1.9-5.6,0,0-1.4-.4-3.4.3-1.9.6-3.1.5-4.4.3-.8,0-3.8-.5-5.1,2.2-1.4,2.6.5,4.9,1.2,5.4,1.2,1,1.8,1.8,2.5,3.8.7,1.9,1.8,2.9,1.8,2.9"></path><path class="cls-1" d="M124.7,116.1c-2.6-.9-4.1-3.2-3.4-5.2.7-1.9,3.3-2.7,5.9-1.8,2.6.9,4.1,3.2,3.4,5.2-.7,1.9-3.3,2.7-5.9,1.8"></path><path class="cls-1" d="M130.8,123.3c-2.2-.3-3.8-1.9-3.6-3.6.3-1.7,2.3-2.7,4.5-2.4,2.2.3,3.8,1.9,3.6,3.6s-2.3,2.7-4.5,2.4"></path><path class="cls-1" d="M141.5,102.2c-1.6-1.6-3.8-1.9-5-.7-1.2,1.2-.9,3.4.7,5,1.6,1.6,3.8,1.9,5,.7,1.2-1.2.9-3.4-.7-5"></path><path class="cls-1" d="M131.9,101.9c-2.3-1.5-5-1.3-6.2.4-1.1,1.7-.2,4.3,2.1,5.8s5,1.3,6.2-.4.2-4.3-2.1-5.8"></path><path class="cls-1" d="M96.5,130.5c2.2,2.2,4.7,1.1,6-1,0-.2.2-.4.2-.6h0c.3-1.1.6-2.1,1.3-3.1.6-.8,1.6-1.6,2.6-2.2.2,0,.5-.5.7-.6,1.2-1.4,1.9-4.4-.9-5.8,0,0-1.3-.6-3.4-.4-2,.3-3.2,0-4.4-.4-.7-.3-3.7-1.1-5.4,1.3-1.8,2.3-.3,4.9.2,5.5,1,1.1,1.5,2.1,1.8,4.1.3,2,1.3,3.1,1.3,3.1"></path><path class="cls-1" d="M84.3,121.2c-2.4-1.4-3.5-3.9-2.4-5.7,1-1.8,3.8-2.1,6.1-.7,2.4,1.4,3.5,3.9,2.4,5.7-1,1.8-3.8,2.1-6.1.7"></path><path class="cls-1" d="M89.1,129.4c-2.1-.7-3.4-2.6-2.9-4.2s2.7-2.3,4.8-1.6c2.1.7,3.4,2.6,2.9,4.2s-2.7,2.3-4.8,1.6"></path><path class="cls-1" d="M103.2,110.5c-1.3-1.8-3.4-2.6-4.8-1.6s-1.4,3.2-.2,5.1,3.4,2.6,4.8,1.6,1.5-3.2.2-5.1"></path><path class="cls-1" d="M93.9,108.4c-2-1.9-4.7-2.2-6.1-.7s-.9,4.2,1.1,6.1,4.7,2.2,6.1.7.9-4.2-1.1-6.1"></path><path class="cls-1" d="M306.3,152.5c2.8,1.5,4.8-.4,5.4-2.8v-.6c0-1.2,0-2.2.3-3.3.4-1,1.1-2,1.8-2.8h0c.1-.2.4-.6.4-.8.7-1.6.5-4.7-2.6-5.3,0,0-1.5-.2-3.3.7-1.9.9-3,1-4.3.9-.8,0-3.8,0-4.8,2.9-1,2.8,1.2,4.8,1.9,5.2,1.3.8,2,1.6,3,3.4.9,1.8,2.2,2.6,2.2,2.6"></path><path class="cls-1" d="M291.8,147.4c-2.7-.6-4.5-2.7-4-4.7.4-2,2.9-3.1,5.6-2.6,2.7.6,4.5,2.7,4,4.7-.4,2-3,3.1-5.6,2.6"></path><path class="cls-1" d="M298.9,153.7c-2.2,0-4-1.4-4-3.1s1.9-3,4.1-3,4,1.4,4,3.1-1.9,3-4.1,3"></path><path class="cls-1" d="M306.6,131.4c-1.8-1.4-4.1-1.4-5.1,0s-.4,3.5,1.4,4.9,4.1,1.4,5.1,0,.4-3.5-1.4-4.9"></path><path class="cls-1" d="M297.1,132.3c-2.5-1.2-5.2-.6-6.1,1.2s.4,4.3,2.9,5.5,5.2.7,6.1-1.2c.9-1.8-.4-4.3-2.8-5.5"></path><path class="cls-1" d="M247.2,147.2c3.1.3,4.3-2.2,3.9-4.7,0-.2-.1-.4-.2-.6h0c-.5-1.1-.9-2.1-1-3.2,0-1.1.2-2.3.5-3.3s.1-.7.1-.9c0-1.8-1.4-4.5-4.5-3.9,0,0-1.4.4-2.8,1.9-1.4,1.5-2.4,2.1-3.7,2.5-.7.3-3.5,1.5-3.3,4.5.1,3,2.9,3.9,3.7,4.1,1.5.2,2.5.7,4.1,2s3,1.6,3,1.6"></path><path class="cls-1" d="M231.9,148.1c-2.7.5-5.2-.7-5.5-2.7-.4-2,1.5-4,4.2-4.5s5.2.7,5.5,2.7c.4,2-1.5,4-4.2,4.5"></path><path class="cls-1" d="M240.8,151.1c-2.1.8-4.3.2-4.9-1.3-.6-1.6.6-3.5,2.6-4.3,2.1-.8,4.3-.2,4.9,1.3.6,1.6-.6,3.5-2.6,4.3"></path><path class="cls-1" d="M239.4,127.6c-2.2-.6-4.3.3-4.7,1.9-.4,1.6,1,3.4,3.2,4s4.3-.3,4.7-1.9c.4-1.6-1-3.4-3.2-4"></path><path class="cls-1" d="M230.9,132.1c-2.7-.1-5,1.4-5.1,3.4s2,3.8,4.7,3.9c2.7.1,5-1.4,5.1-3.4s-2-3.8-4.7-3.9"></path><path class="cls-1" d="M92.2,95.5c2.6,1.8,4.8.2,5.7-2.1,0-.2,0-.4,0-.6,0-1.2.2-2.2.8-3.3.5-.9,1.3-1.9,2.1-2.6h0c.2,0,.4-.5.5-.7.9-1.5,1-4.6-2-5.5,0,0-1.4-.3-3.4.3-1.9.6-3.1.6-4.4.4-.8,0-3.8-.4-5.1,2.3-1.4,2.6.6,4.9,1.2,5.4,1.2.9,1.8,1.8,2.5,3.7.7,1.9,1.9,2.8,1.9,2.8"></path><path class="cls-1" d="M78.5,88.7c-2.6-.9-4.1-3.2-3.5-5.1.7-1.9,3.3-2.8,5.9-1.9s4.1,3.2,3.4,5.1-3.3,2.8-5.9,1.9"></path><path class="cls-1" d="M84.8,95.8c-2.2-.3-3.8-1.9-3.6-3.6s2.2-2.8,4.4-2.4c2.2.3,3.8,1.9,3.6,3.6-.2,1.7-2.2,2.8-4.4,2.4"></path><path class="cls-1" d="M95.2,74.6c-1.6-1.6-3.9-1.9-5-.7-1.2,1.2-.8,3.5.8,5,1.6,1.6,3.9,1.9,5,.7,1.2-1.2.8-3.4-.8-5"></path><path class="cls-1" d="M85.6,74.4c-2.3-1.5-5.1-1.3-6.2.4-1.1,1.7,0,4.3,2.2,5.8,2.3,1.5,5.1,1.3,6.2-.4,1.1-1.7,0-4.3-2.2-5.8"></path><path class="cls-1" d="M49.2,100.6c1.8,2.5,4.5,1.8,6.1,0,0-.2.2-.3.3-.5.5-1.1,1-2,1.8-2.8.8-.7,1.8-1.3,2.9-1.7h0c.2,0,.6-.4.7-.5,1.4-1.1,2.5-4,0-5.9,0,0-1.2-.8-3.3-.8s-3.1-.5-4.3-1.1c-.7-.4-3.5-1.7-5.5.4-2.2,2-1.1,4.8-.6,5.5.8,1.3,1.1,2.3,1.1,4.4s.8,3.3.8,3.3"></path><path class="cls-1" d="M38.6,89.6c-2.1-1.7-2.8-4.4-1.5-6s4-1.5,6.2.2,2.8,4.4,1.5,6-4,1.5-6.2-.2"></path><path class="cls-1" d="M42.1,98.3c-2-1-3-3.1-2.2-4.6s3-1.9,5-.8c2,1,3,3.1,2.2,4.6s-3,1.9-5,.8"></path><path class="cls-1" d="M59,81.9c-1-2-3-3.1-4.5-2.3-1.5.7-1.9,3-.9,5s3,3.1,4.5,2.3,1.9-3,.9-5"></path><path class="cls-1" d="M50,78.4c-1.7-2.2-4.3-2.9-5.9-1.7-1.6,1.3-1.6,4,0,6.2,1.7,2.2,4.3,2.9,5.9,1.6,1.6-1.2,1.6-4,0-6.2"></path><path class="cls-1" d="M49.1,64.1c1.4,2.8,4.1,2.5,6,.9.2,0,.3-.3.4-.5.6-1,1.3-1.8,2.3-2.5.9-.6,2.1-1,3.1-1.2.2,0,.6-.3.8-.4,1.6-.9,3.2-3.5,1-5.8,0,0-1.1-1-3.1-1.4s-3-1-4-1.8c-.6-.5-3.1-2.2-5.5-.5-2.5,1.6-1.9,4.5-1.6,5.3.6,1.4.7,2.5.4,4.5s.2,3.4.2,3.4"></path><path class="cls-1" d="M40.5,51.4c-1.8-2.1-2-4.8-.5-6.2,1.5-1.3,4.2-.8,6,1.3,1.8,2,2,4.8.5,6.2-1.5,1.3-4.2.8-6-1.3"></path><path class="cls-1" d="M42.5,60.7c-1.8-1.4-2.4-3.5-1.4-4.9s3.3-1.3,5.1,0c1.8,1.4,2.4,3.5,1.4,4.9-1,1.3-3.3,1.3-5.1,0"></path><path class="cls-1" d="M61.9,47.3c-.6-2.1-2.4-3.5-4.1-3.1-1.6.5-2.4,2.6-1.8,4.8.6,2.1,2.4,3.5,4,3.1,1.6-.5,2.4-2.6,1.8-4.8"></path><path class="cls-1" d="M53.7,42.3c-1.3-2.4-3.8-3.6-5.6-2.7-1.8,1-2.2,3.7-.9,6.1,1.3,2.4,3.8,3.6,5.6,2.7,1.8-1,2.2-3.7.9-6.1"></path><path class="cls-1" d="M8.1,59.6c.8,3,3.5,3.2,5.7,2,.2,0,.3-.2.5-.4.8-.8,1.6-1.6,2.7-2,1-.4,2.2-.6,3.3-.6h0c.2,0,.7,0,.9-.2,1.7-.6,3.8-2.9,2.1-5.5,0,0-.9-1.2-2.8-2s-2.8-1.6-3.6-2.6c-.5-.6-2.6-2.8-5.3-1.5-2.7,1.1-2.7,4.1-2.5,4.9.3,1.5.2,2.6-.5,4.5s-.4,3.4-.4,3.4"></path><path class="cls-1" d="M2,45.6c-1.4-2.4-1.1-5.1.7-6.1,1.8-1,4.3,0,5.7,2.4s1.1,5.1-.7,6.1c-1.8,1.1-4.3,0-5.7-2.4"></path><path class="cls-1" d="M2.2,55c-1.5-1.7-1.7-3.9-.5-5.1,1.2-1.1,3.5-.7,5,1s1.7,3.9.5,5.1c-1.2,1.1-3.5.7-5-1"></path><path class="cls-1" d="M23.8,45.6c-.2-2.2-1.7-3.9-3.4-3.8-1.7.2-2.9,2.1-2.6,4.3.2,2.2,1.7,3.9,3.4,3.8,1.7-.2,2.9-2.1,2.6-4.3"></path><path class="cls-1" d="M16.6,39.1c-.8-2.6-3-4.2-5-3.6-1.9.6-2.9,3.2-2.1,5.8.8,2.6,3,4.2,5,3.7,1.9-.6,2.9-3.2,2.1-5.8"></path><path class="cls-1" d="M24,25.3c1.6,2.7,4.3,2.2,6.1.4s.3-.3.4-.5h0c.6-1,1.1-1.9,2-2.7.8-.7,2-1.2,3-1.5h0c.2,0,.6-.3.8-.4,1.5-1,2.9-3.8.5-5.9,0,0-1.2-.9-3.2-1.1s-3.1-.8-4.2-1.5c-.7-.4-3.3-2-5.6,0-2.3,1.8-1.5,4.7-1.1,5.4.7,1.3.9,2.4.8,4.5-.2,2,.5,3.4.5,3.4"></path><path class="cls-1" d="M14.4,13.3c-2-1.9-2.4-4.6-1-6.1,1.4-1.5,4.2-1.1,6.1.8,2,1.9,2.4,4.6,1,6.1s-4.2,1.1-6.1-.8"></path><path class="cls-1" d="M17.1,22.4c-1.9-1.2-2.7-3.3-1.8-4.8.9-1.4,3.2-1.6,5.1-.4s2.7,3.3,1.8,4.8c-.9,1.4-3.2,1.6-5.1.4"></path><path class="cls-1" d="M35.4,7.5c-.8-2.1-2.7-3.3-4.3-2.7-1.6.6-2.2,2.8-1.4,4.9.8,2.1,2.7,3.3,4.3,2.7,1.6-.6,2.2-2.8,1.4-4.9"></path><path class="cls-1" d="M26.8,3.2C25.3.9,22.7,0,21,1.1s-1.9,3.9-.4,6.2,4.1,3.3,5.8,2.2c1.7-1.1,1.9-3.9.4-6.2"></path></g></g></g></g></svg>