<?xml version="1.0" encoding="UTF-8"?> <svg xmlns="http://www.w3.org/2000/svg" version="1.1" viewBox="0 0 179.3 197.9"><defs><style> .cls-1 { fill: #fff; } </style></defs><g><g id="Capa_1"><path class="cls-1" d="M37.2,43.2c3.1,3.6,5.8,6.7,8.3,10,.6.8.9,2.4.6,3.4-5.5,17.4.9,27.4,19,29.4,0,0,.3,0,.6.3,1.1,5.3,0,9.3-5.6,11.8-4.6,2-8.8,5.1-13.9,8,4.2,2.3,7.5,4.5,11.1,6.1,7.3,3.4,12.7,8.9,15.5,16.2,5.1,13.3,9.6,26.9,14.3,40.4.8,2.2,1.4,4.4,2.6,8.1,1.6-5.5,2.8-9.7,4.2-13.8,3.6-10.5,7-21.1,11-31.5,3.5-9.2,9.5-16.3,18.8-20.3,3-1.3,5.8-3.2,9.3-5.3-4.5-2.6-8.2-5.4-12.4-7.1-5.7-2.4-8.1-6.3-7.3-12.6,2.7-.5,5.7-.9,8.5-1.7,11.3-3.6,16.7-14.4,12.3-25.3-1.4-3.5-1.2-5.7,1.5-8.3,2.3-2.2,4.1-4.8,6.5-7.8,5.1,8.8,7.7,17.9,7.9,27.6.3,11.3.1,22.7.6,34,.7,16.1,4.7,31.5,11.4,46.2.5,1,.8,2.1,1.7,4.4-7.1-5.7-13.1-10.5-19.6-15.6-4.9,7.8-9.7,15.5-14.7,23.5-5.1-4.8-10-9.3-15.3-14.3-8.2,13.2-16.2,26.1-24.6,39.7-8.3-13.4-16.3-26.3-24.6-39.7-5.2,4.9-10,9.4-15.3,14.4-4.9-8-9.7-15.6-14.7-23.7-6.5,5.2-12.7,10.2-18.6,15,3.1-10,6.8-19.9,9.4-30.1,4.2-16.3,3.3-33.1,3.2-49.7.1-11.1,2.4-21.5,8.3-31.7h0Z"></path><path class="cls-1" d="M33.6,21.4c1.1,1,2.2,2,3.4,2.9,6.1,4.8,8,4.8,13.9-.3,22.1-18.7,55.4-18.6,77.6.2,5.7,4.8,7.5,4.9,13.6.2,1.1-.9,2.2-1.8,3.4-2.6.3.3.7.5,1,.8-2.9,4.3-5.4,8.9-8.7,12.9-9.6,11.7-21.1,21.3-34.5,28.4-1.7.9-4.4.8-6.2,0-5.3-2.2-10.2-2.2-15.4.2-1.3.6-3.4,1.1-4.5.5-17.7-10-33.3-22.5-43.4-40.7-.4-.7-.6-1.4-.9-2.2.3,0,.5-.3.7-.4h0Z"></path><path class="cls-1" d="M112.9,106c-14.4,8.6-18.3,23.1-23.3,38.1-4.9-15-8.9-29.5-24.3-38.7,11.3-1.9,10.6-9.4,10.7-16.6,0-1.3.4-2.6.8-3.9,2.1-7.4,7.7-13,12.8-13s11.3,6.1,13,13.4c.7,2.9,1.3,6,1,8.9-.5,5,1.4,7.9,5.9,9.6,1,.4,1.9,1.2,3.4,2.2Z"></path><path class="cls-1" d="M124.6,62c1.9,4.5,1.4,8.2-2.1,11.1-4.2,3.5-10.5,3.8-16.4.5,6.2-3.8,12.2-7.6,18.5-11.6Z"></path><path class="cls-1" d="M54.6,61.9c6.5,4.1,12.5,7.9,18.5,11.7-5.5,3.3-11.9,3-16.3-.5-3.7-2.9-3.6-6.7-2.2-11.2Z"></path></g></g></svg> 