<?xml version="1.0" encoding="UTF-8"?> <svg xmlns="http://www.w3.org/2000/svg" id="Capa_1" data-name="Capa 1" version="1.1" viewBox="0 0 2174 2500"><defs><style> .cls-1 { fill: #fff; fill-rule: evenodd; stroke-width: 0px; } </style></defs><path class="cls-1" d="M807.6,142.7c-148.8,77.5-270.5,143.1-270.4,145.7,0,6.9,357,187.7,369.7,187.2,5.8-.2,47.6-19.4,92.9-42.8l82.4-42.4,90,46.3,90,46.3,147.4-66.3c222.2-99.8,245.2-110.8,241.6-114.4-4.8-4.9-84.5-47.7-300.7-161.5-104.5-55-205.9-108.9-225.4-119.9-19.5-10.9-38-19.7-41.3-19.5s-127.6,63.7-276.4,141.2h.2ZM155.1,480.6L.3,560.5v351.1c0,193.1,2,351.1,4.5,351.1s78.7-33,169.3-73.4l164.8-73.4v-370.1l80.5,43.9c62.1,33.8,124.1,67.5,186.3,101.1l105.7,57.3,47.1-21.3c29.5-13.4,59-26.9,88.4-40.5,22.7-10.6,78.5-35.7,123.9-55.8s87.5-40.4,93.4-45c7.9-6.1-88.7-59.5-357.2-197.4-202.4-104-374.6-188.7-382.5-188.3s-84.1,36.7-169.3,80.7h-.1ZM1679.3,503c-105.5,47.6-191.8,88.5-191.9,90.8,0,2.3,57.4,36.5,127.8,75.9s127.9,73.8,127.9,76.4-62.3,32.7-138.3,67c-76.1,34.3-268.4,121.1-427.4,193l-532.7,240.8c-134,60.6-254.8,115.2-268.4,121.4-273.7,123.9-348.9,158.3-359.3,164.2-10.4,5.9-12.7,40.5-14.6,213.7l-2.4,206.8,138.5,70.6,138.5,70.6,192-86.7c105.6-47.7,192-89.2,192-92.2s-19.5-15.8-43.4-28.3-73.1-40.2-109.4-61.5c-36.3-21.3-72.6-40.9-80.5-43.5-8-2.6-14.3-7.1-14.2-10.1.1-2.9,84.7-43.1,187.9-89.3,200.5-89.6,353.9-158.7,683.2-307.6,147.3-66.6,294.6-133.1,441.9-199.6,129.5-58.4,280-126.7,334.5-151.7l99.1-45.4,2.2-209,2.2-209-140.5-72.1c-77.3-39.6-143.3-72-146.8-71.9s-92.6,39.2-198,86.8h.1ZM2122.5,1257c-20.7,10.1-61.6,29-90.9,42.1s-84.8,38.1-123.4,55.7l-70.2,32-1.6,183.5c-.9,100.9-4.6,183-8.3,182.5-8.3-1.2-139.9-68.7-272.2-139.6-95.5-51.1-101.5-53.2-123.9-42.1-13,6.4-90.5,41.2-172.2,77.3-81.8,36.1-151.3,67.9-154.6,70.8-3.3,2.9,161.3,92.1,365.7,198.2l371.6,193,158.8-82.1c87.3-45.2,161.6-86.4,165-91.5,7.7-11.7,7-699.7-.7-698.8-3,.4-22.5,8.9-43.2,19.1h.1ZM1243.3,2064.6c-27.5,11.8-55.1,23.7-82.6,35.6-83.1,36-66.8,37.2-165.7-12.1-65.9-32.8-94.2-42.9-106.6-38-9.2,3.7-88.8,39.5-176.8,79.5-88,40.1-163,72.8-166.8,72.8-36.9,0,24.5,36.7,261.3,156.1l277.7,140.1,116.9-57.7c64.3-31.7,193.9-95.3,288.1-141.2s170.1-84.7,168.6-86.2c-1.4-1.5-80.3-42-175.4-90l-172.8-87.4-66.1,28.4h.2Z"></path></svg> 