<?xml version="1.0" encoding="UTF-8"?> <svg xmlns="http://www.w3.org/2000/svg" version="1.1" viewBox="0 0 50 50"><defs><style> .cls-1 { fill: #fff; } </style></defs><g><g id="Capa_1"><path class="cls-1" d="M25,.6c13.5,0,24.4,10.9,24.4,24.4s-10.9,24.4-24.4,24.4S.6,38.5.6,25,11.5.6,25,.6ZM33.4,35c.5-1.4,2.6-15.1,2.8-17.8,0-.8-.2-1.4-.7-1.6-.6-.3-1.5-.1-2.6.2-1.4.5-19.9,8.4-21,8.8-1,.5-2,.9-2,1.6s.2.7,1,1c.8.2,2.9.9,4.1,1.3,1.2.3,2.4,0,3.3-.5.8-.5,9.9-6.6,10.6-7.1.7-.6,1.2.1.6.7s-6.7,6.6-7.5,7.4c-1,1-.2,2.1.3,2.4.8.5,6.3,4.2,7.1,4.8s1.6.8,2.4.8c.7.2,1.2-.9,1.6-2Z"></path></g></g></svg> 